<?xml version="1.0" encoding="utf-8"?>
<!-- Generator: Adobe Illustrator 16.0.0, SVG Export Plug-In . SVG Version: 6.00 Build 0)  -->
<!DOCTYPE svg PUBLIC "-//W3C//DTD SVG 1.1//EN" "http://www.w3.org/Graphics/SVG/1.1/DTD/svg11.dtd">
<svg version="1.1" id="Layer_1" xmlns="http://www.w3.org/2000/svg" xmlns:xlink="http://www.w3.org/1999/xlink" x="0px" y="0px"
	 width="74.5px" height="85.137px" viewBox="-3 4 74.5 85.137" enable-background="new -3 4 74.5 85.137" xml:space="preserve">
<g>
	<line fill="none" stroke="#479FD8" x1="-7" y1="5.428" x2="-7" y2="5.428"/>
</g>
<path fill="#8F006A" d="M34.359,51.294c8.554,0,15.509-6.958,15.509-15.508c0-8.549-6.955-15.508-15.509-15.508
	c-8.552,0-15.508,6.955-15.508,15.508S25.808,51.294,34.359,51.294z M34.359,22.864c7.128,0,12.925,5.794,12.925,12.922
	c0,7.128-5.797,12.923-12.925,12.923s-12.923-5.795-12.923-12.923C21.437,28.659,27.231,22.864,34.359,22.864z M34.354,5.428
	c-17.105,0-31.016,13.74-31.016,31.019c0,18.092,15.509,36.602,26.819,49.61c0.042,0.051,1.854,2.08,4.098,2.08
	c0.005,0,0.19,0,0.2,0c2.242,0,4.058-2.029,4.1-2.08c11.312-13.01,26.82-31.516,26.82-49.61
	C65.376,19.167,51.464,5.428,34.354,5.428z M34.658,82.665c-0.056,0.053-0.212,0.165-0.35,0.255
	c-0.026-0.07-0.218-0.223-0.333-0.344c-9.474-10.9-25.467-29.297-25.467-46.128c0-14.252,11.598-25.85,25.846-25.85
	c14.258,0,25.852,11.597,25.852,25.852C60.207,53.279,44.213,71.674,34.658,82.665z M34.359,22.864
	c7.128,0,12.925,5.794,12.925,12.921c0,7.129-5.797,12.924-12.925,12.924s-12.923-5.795-12.923-12.924
	C21.437,28.659,27.231,22.864,34.359,22.864z"/>
<g>
	<path fill="#FFFFFF" d="M26.302,44.136V27.355h3.343l3.973,11.882c0.366,1.106,0.633,1.936,0.8,2.484
		c0.19-0.61,0.489-1.507,0.895-2.69l4.017-11.676h2.988v16.781h-2.141V30.091l-4.877,14.045h-2.003l-4.854-14.285v14.287h-2.142
		V44.136z"/>
</g>
</svg>
